<?xml version="1.0" encoding="utf-8"?>
<!-- Generator: Adobe Illustrator 26.0.2, SVG Export Plug-In . SVG Version: 6.00 Build 0)  -->
<svg version="1.1" id="Layer_1" xmlns="http://www.w3.org/2000/svg" xmlns:xlink="http://www.w3.org/1999/xlink" x="0px" y="0px"
	 viewBox="0 0 125.8 128" style="enable-background:new 0 0 125.8 128;" xml:space="preserve">
<g>
	<path d="M53.8,27c0,4.3,0,8.7,0,13c-0.1,6.8-4.1,12-10.7,13.5c-1.2,0.3-2.4,0.4-3.6,0.4c-8.4,0-16.8,0-25.2,0
		C5.7,53.9,0,48.2,0,39.6C0,31,0,22.4,0,13.9C0,7.1,4.1,1.9,10.7,0.4c1.1-0.3,2.3-0.4,3.5-0.4c8.4,0,16.9,0,25.3,0
		c8.5,0,14.3,5.8,14.3,14.3C53.9,18.5,53.8,22.8,53.8,27z M8.9,27c0,4.4,0,8.8,0,13.2c0,3,1.7,4.8,4.7,4.8c8.9,0,17.7,0,26.6,0
		c3.1,0,4.8-1.8,4.8-4.9c0-8.7,0-17.5,0-26.2c0-3.1-1.7-4.9-4.9-4.9c-8.8,0-17.5,0-26.3,0c-3.2,0-4.8,1.7-4.9,4.9
		C8.9,18.2,8.9,22.6,8.9,27z"/>
	<path d="M71.9,26.9c0-4.3,0-8.6,0-12.9c0-8.1,5.7-13.9,13.7-14C94.4,0,103.2,0,112,0.1c8,0.1,13.7,5.9,13.8,13.9c0,8.7,0,17.3,0,26
		c0,8-5.8,13.9-13.8,14c-8.7,0.1-17.5,0.1-26.2,0c-8.1-0.1-13.8-5.9-13.8-14C71.9,35.6,71.9,31.3,71.9,26.9z M80.8,27
		c0,4.4,0,8.8,0,13.2c0,3,1.7,4.8,4.7,4.8c8.9,0,17.7,0,26.6,0c3.1,0,4.8-1.8,4.8-4.9c0-8.7,0-17.5,0-26.2c0-3.1-1.7-4.9-4.9-4.9
		c-8.8,0-17.5,0-26.3,0c-3.2,0-4.8,1.7-4.9,4.9C80.8,18.2,80.8,22.6,80.8,27z"/>
	<path d="M0,98.9c0-4.3,0-8.7,0-13C0,77.9,5.7,72,13.7,72c8.8-0.1,17.6-0.1,26.3,0c8,0.1,13.8,6,13.8,14c0,8.6,0,17.2,0,25.8
		c0,8.1-5.9,13.9-13.9,14c-8.7,0-17.3,0-26,0c-8.2,0-13.9-5.9-13.9-14.1C0,107.4,0,103.1,0,98.9z M8.9,98.9c0,4.4,0,8.8,0,13.2
		c0,3,1.7,4.8,4.7,4.8c8.9,0,17.7,0,26.6,0c3.1,0,4.8-1.8,4.8-4.9c0-8.7,0-17.5,0-26.2c0-3.1-1.7-4.9-4.9-4.9c-8.8,0-17.5,0-26.3,0
		c-3.2,0-4.8,1.7-4.9,4.9C8.9,90.1,8.9,94.5,8.9,98.9z"/>
	<path d="M89.9,80.9c-3.1,0-6,0-9.1,0c0,0.6,0,1.1,0,1.6c0,13.5,0,27,0,40.6c0,2.8-1.3,4.4-3.9,4.8c-2.5,0.4-4.9-1.4-5-4
		c0-0.3,0-0.7,0-1c0-15.3,0-30.6,0-45.9c0-3.5,1.6-5.1,5.1-5.1c5.5,0,11.1,0,16.6,0c3.5,0,5.2,1.7,5.2,5.2c0,5.6,0,11.2,0,16.8
		c0,0.5,0,0.9,0,1.5c0.5,0,0.9,0.1,1.3,0.1c5.1,0,10.2,0,15.3,0c1.1,0,1.4-0.3,1.4-1.4c-0.1-5.8,0-11.6,0-17.5
		c0-2.9,1.8-4.8,4.4-4.8c2.7,0,4.4,1.9,4.5,4.8c0,7.6,0,15.2,0,22.8c0,3.1-1.6,4.8-4.7,4.8c-8.9,0.1-17.7,0.1-26.6,0
		c-3.1,0-4.6-1.7-4.6-4.8c0-5.7,0-11.5,0-17.2C89.9,81.9,89.9,81.5,89.9,80.9z"/>
	<path d="M89.9,119.1c0-0.6,0-1.2,0-1.7c0-3.2,1.6-4.9,4.8-4.9c1.6,0,3.3-0.1,4.8,0.2c2.3,0.3,3.7,1.9,3.8,4.2
		c0.1,1.5,0.1,3.1,0,4.6c-0.1,2.5-1.5,4.1-4.1,4.3c-1.9,0.2-3.9,0.1-5.8-0.1c-2-0.2-3.3-1.9-3.4-3.9C89.9,120.8,89.9,120,89.9,119.1
		C89.9,119.1,89.9,119.1,89.9,119.1z"/>
	<path d="M112.4,119c0-0.5,0-0.9,0-1.4c-0.2-3.4,1.7-5.4,5.2-5.3c1.5,0,3,0,4.5,0.2c2.3,0.3,3.6,1.9,3.7,4.2c0.1,1.6,0.1,3.2,0,4.7
		c-0.1,2.3-1.4,3.9-3.7,4.1c-2,0.2-4.1,0.2-6.2,0c-2.1-0.2-3.4-1.9-3.5-4C112.3,120.7,112.4,119.9,112.4,119z"/>
	<path d="M20.2,27c0-0.6,0-1.2,0-1.7c0-3.2,1.6-4.9,4.8-4.9c1.6,0,3.3-0.1,4.8,0.2c2.3,0.3,3.7,1.9,3.8,4.2c0.1,1.5,0.1,3.1,0,4.6
		c-0.1,2.5-1.5,4.1-4.1,4.3c-1.9,0.2-3.9,0.1-5.8-0.1c-2-0.2-3.3-1.9-3.4-3.9C20.2,28.7,20.2,27.8,20.2,27C20.2,27,20.2,27,20.2,27z
		"/>
	<path d="M92.1,26.9c0-5.5,1.1-6.6,6.6-6.6c1,0,2.1,0,3.1,0.2c2.2,0.4,3.5,1.8,3.7,4.1c0.1,1.6,0.1,3.2,0,4.9
		c-0.1,2.4-1.5,3.9-4,4.2c-2,0.2-4,0.1-6-0.1c-2-0.2-3.4-1.9-3.4-4C92.1,28.6,92.1,27.8,92.1,26.9z"/>
	<path d="M20.2,98.8c0-5.5,1.1-6.6,6.6-6.6c1,0,2.1,0,3.1,0.2c2.2,0.4,3.6,1.9,3.6,4.2c0.1,1.5,0.1,3.1,0,4.6c-0.1,2.4-1.5,4-4,4.3
		c-2,0.2-4,0.1-6-0.1c-2-0.2-3.4-1.9-3.4-4C20.2,100.5,20.2,99.6,20.2,98.8z"/>
</g>
</svg>
