<svg xmlns="http://www.w3.org/2000/svg" viewBox="0 0 222 60" style="enable-background:new 0 0 222 60" xml:space="preserve">
  <path d="M0 60v-2.2h21.1c4.1 0 4.8-8.8 10.2-8.8h159.3c4.1 0 4.8-8.8 10.2-8.8H222v2.2h-21.2c-3.6 0-4.4 8.6-10.1 8.8H31.3c-3.6 0-4.4 8.6-10.1 8.8H0zm86.2-27.5V20.1h5v12.7c0 3.8 1.5 5.8 4 5.8 2.6 0 4-1.8 4-5.8V20.1h5v12.4c0 6.8-3.4 10.1-9.2 10.1-5.6.1-8.8-3-8.8-10.1zm21.4 8.8 1-4.1c1.7.9 3.6 1.4 5.5 1.4 2.3 0 3.5-.9 3.5-2.4 0-1.4-1-2.2-3.7-3.1-3.7-1.3-6.1-3.4-6.1-6.6 0-3.8 3.2-6.7 8.3-6.7 1.9-.1 3.9.3 5.6 1.1l-1.1 4c-1.4-.7-3-1.1-4.6-1.1-2.2 0-3.2 1-3.2 2.1 0 1.4 1.2 2 4.1 3.1 3.9 1.4 5.7 3.5 5.7 6.6 0 3.7-2.8 6.9-8.8 6.9-2.2.2-4.3-.3-6.2-1.2zm-44.2.9V20.5c2.2-.3 4.4-.5 6.7-.5 4.2 0 7 .8 9 2.4 2.3 1.7 3.7 4.4 3.7 8.4 0 4.2-1.5 7.2-3.6 9-2.3 1.9-5.9 2.9-10.2 2.9-1.8-.1-3.7-.2-5.6-.5zm5-18.2v14.5c.6.1 1.1.1 1.7.1 4.5 0 7.5-2.5 7.5-7.8 0-4.6-2.7-7-7-7-.7 0-1.5.1-2.2.2zm117.3 18.3-1.7-5.7h-6.3l-1.6 5.7H171l6.7-22.2h6.5l6.9 22.2h-5.4zm-6-14.1-1.3 4.7h4.9l-1.4-4.7c-.4-1.3-.8-3-1.1-4.3h-.1c-.3 1.3-.6 3-1 4.3zm-16.4 14.1V20.1h5v22.2h-5zm-7.8 0c-.7-1.7-1.2-3.4-1.5-5.2-.6-2.8-1.6-3.5-3.6-3.6h-1.5v8.7H144V20.4c2.2-.3 4.4-.5 6.6-.5 3.3 0 5.6.5 7.1 1.7 1.4 1.1 2.2 2.9 2.1 4.7 0 2.4-1.6 4.6-3.9 5.4v.1c1.5.6 2.4 2.1 2.9 4.1.7 2.5 1.3 5.4 1.8 6.3l-5.1.1zm-6.6-18.4V30h2c2.5 0 3.9-1.3 3.9-3.2 0-2-1.4-3.1-3.7-3.1-.7 0-1.5.1-2.2.2zm-18.6 18.4v-18h-5.9v-4.2h16.9v4.2h-6v18h-5zm-76.4 0-4.7-8.6c-1.4-2.5-2.7-5.2-3.8-7.8h-.1c.2 3 .2 6.1.2 9.7v6.7h-4.6V20.1h5.8l4.6 8.1c1.3 2.5 2.5 5 3.6 7.6h.1c-.3-2.9-.4-5.9-.4-9.3V20h4.6v22.2h-5.3v.1zm-22.3 0V20.1h5v22.2h-5zM94 20.1l2-3h3.8l-2.9 3H94zm-26.9-11V.2h2v8.9c0 3.4 1.5 4.8 3.5 4.8 2.2 0 3.7-1.5 3.7-4.8V.2h2V9c0 4.6-2.4 6.5-5.7 6.5-3.2.1-5.5-1.7-5.5-6.4zm78.3 5.5.5-1.6c1.1.6 2.3 1 3.5 1 2 0 3.2-1.1 3.2-2.6 0-1.4-.8-2.2-2.8-3-2.5-.9-4-2.2-4-4.3 0-2.4 1.9-4.1 4.9-4.1 1.2 0 2.3.2 3.3.7l-.5 1.6c-.9-.5-1.9-.7-2.9-.7-2.1 0-2.8 1.2-2.8 2.3 0 1.4.9 2.1 3 2.9 2.5 1 3.8 2.2 3.8 4.4 0 2.3-1.7 4.3-5.3 4.3-1.4.1-2.7-.2-3.9-.9zM53.2 7.9C53 3.8 56.1.2 60.2 0h.8c1.2-.1 2.5.2 3.6.7l-.5 1.6c-1-.4-2-.6-3-.6-3.5 0-5.9 2.3-5.9 6.2 0 3.7 2.1 6.1 5.8 6.1 1.1 0 2.2-.2 3.2-.6l.4 1.5c-1.3.5-2.6.8-4 .7-4.2 0-7.4-2.7-7.4-7.7zM162 15.3V.5c1.4-.2 2.7-.3 4.1-.3 2.8 0 4.8.7 6.1 1.9 1.5 1.4 2.2 3.4 2.1 5.4.1 2.2-.7 4.3-2.2 5.9-1.4 1.4-3.7 2.2-6.7 2.2-1.1-.1-2.3-.2-3.4-.3zm1.9-13.4v11.9c.7.1 1.3.1 2 .1 4.2 0 6.4-2.3 6.4-6.4 0-3.6-2-5.8-6.1-5.8-.8 0-1.5 0-2.3.2zm-43.6 13.4V.5c1.4-.2 2.8-.3 4.1-.3 2.8 0 4.8.7 6.1 1.9 1.5 1.4 2.2 3.4 2.1 5.4.1 2.2-.7 4.3-2.2 5.9-1.4 1.4-3.7 2.2-6.7 2.2-1-.1-2.2-.2-3.4-.3zm2-13.4v11.9c.7.1 1.3.1 2 .1 4.2 0 6.4-2.3 6.4-6.4 0-3.6-2-5.8-6.1-5.8-.8 0-1.6 0-2.3.2zM92.1 15.3V.5c1.4-.2 2.7-.3 4.1-.3 2.8 0 4.8.7 6.1 1.9 1.5 1.4 2.2 3.4 2.1 5.4.1 2.2-.7 4.3-2.2 5.9-1.4 1.4-3.7 2.2-6.7 2.2-1.1-.1-2.2-.2-3.4-.3zM94 1.9v11.9c.7.1 1.3.1 2 .1 4.2 0 6.4-2.3 6.4-6.4 0-3.6-2-5.8-6.1-5.8-.8 0-1.5 0-2.3.2zm91.9 13.5-1.6-4.7H179l-1.6 4.7h-2L180.5.3h2.3l5.1 15.1h-2zm-5.1-10.7-1.5 4.4h4.5l-1.5-4.3c-.3-1-.6-1.9-.8-2.8-.1.9-.4 1.8-.7 2.7zm-45.6 10.7V.3h8.1v1.6h-6.2v4.8h5.9v1.6h-5.9v5.4h6.5v1.6l-8.4.1zm-19.2 0-1.6-4.7h-5.3l-1.6 4.7h-2L110.6.3h2.3l5.1 15.1h-2zm-5-10.7-1.5 4.4h4.5l-1.5-4.3c-.3-1-.6-1.9-.8-2.8-.2.9-.4 1.8-.7 2.7zM81.5 15.4V.3h1.9v13.5h6.4v1.6h-8.3zm-31.3 0-1.6-4.7h-5.3l-1.6 4.7h-2L44.8.3h2.3l5.1 15.1h-2zM45.1 4.7l-1.5 4.4h4.5l-1.5-4.3c-.3-1-.6-1.9-.8-2.8-.2.9-.4 1.8-.7 2.7zM31.6 15.4V.3h8.1v1.6h-6.2v5h5.7v1.6h-5.7v6.8l-1.9.1z"/>
</svg>
