<svg xmlns="http://www.w3.org/2000/svg" viewBox="0 0 147 42" style="enable-background:new 0 0 147 42" xml:space="preserve">
  <path class="logo_sistema_svg__st0" d="M94.475 20.204h52.5v1.7h-52.5zm0 20.1h52.5v1.7h-52.5zm0-10.1h52.5v1.7h-52.5zm0-30.2h52.5v1.7h-52.5zm0 10.1h52.5v1.7h-52.5zm23.1 14.1.2-1.1h-4.4l-1.2 5.8h4.5l.2-1.1h-2.9l.3-1.3h2.6l.2-1.1h-2.6l.3-1.2h2.8zm9.7 3.6h2.3l.2 1.2h1.8l-1.1-5.9h-2l-3.6 5.9h1.6l.8-1.2zm1.9-3.6.3 2.5h-1.6l1.3-2.5zm4.8-1.1-1.3 5.9h1.7l1.2-5.9h-1.6zm-11.3 4.3-1-4.4h-2.2l-1.2 5.9h1.4l.9-4.6 1.1 4.6h2.2l1.2-5.9h-1.4l-1 4.4zm-16.8-.3c-.1.4-.1.9.2 1.3.5.5 1.3.8 2 .7 1.5 0 2.7-.6 3-1.9.3-1.2-.6-1.5-1.3-1.7l-1-.3c-.2-.1-.6-.2-.5-.6.1-.4.5-.6.9-.6.8 0 .6.6.6.8h1.6c.1-.6.3-1.9-2-1.9-1.8 0-2.7.9-2.9 1.8-.2.7.2 1.4.9 1.6h.2l1.4.4c.4.1.4.3.4.6-.1.7-.9.7-1 .7-1 0-.8-.7-.8-.9h-1.7zm9.2 6.1-1.2 5.9h1.7l1.3-5.9h-1.8zm7.5 1.1.2-1.1h-4.4l-1.2 5.8h4.5l.2-1.1h-2.8l.3-1.2h2.6l.2-1.1h-2.6l.3-1.2 2.7-.1zm1.8-1.1-1.3 5.9h4.3l.2-1.1h-2.6l1-4.7-1.6-.1zm3.9-26.5c.5 0 1-.1 1.5-.2.6-.3 1.1-.9 1.2-1.6.2-.6 0-1.2-.5-1.6-.4-.2-1-.4-1.5-.3h-2.7l-1.2 5.9h1.6l.5-2.1 1.1-.1zm-.5-2.7h.7c.5 0 1 0 .9.8-.2.8-.8.8-1.2.8h-.7l.3-1.6zm-12.3.1.2-1.1h-4.1l-1.2 5.8h1.6l.5-2.2h2.4l.2-1.1h-2.4l.3-1.4h2.5zm9.1 0 .2-1.1h-4.4l-1.2 5.8h4.5l.2-1.1h-2.9l.3-1.2h2.6l.2-1.1h-2.6l.3-1.2 2.8-.1zm-7.5-1.2-1.2 5.9h1.7l1.2-5.9h-1.7zm-7.1 14.1c-.1.4-.1.9.2 1.3.5.5 1.2.8 2 .7 1.5 0 2.7-.6 3-1.9.3-1.2-.6-1.5-1.3-1.7l-1-.3c-.2-.1-.6-.2-.5-.6.1-.4.5-.7.9-.6.8 0 .6.6.6.8h1.6c.1-.6.3-1.9-2-1.9-1.8 0-2.7.9-2.9 1.8-.2.7.2 1.4.9 1.6h.2l1.4.4c.4.1.4.3.4.6-.1.7-.9.7-1 .7-1 0-.8-.7-.8-.9h-1.7zm11.7-2.8.2-1.1h-4.4l-1.2 5.8h4.5l.2-1.1h-2.9l.3-1.3h2.6l.2-1.1h-2.6l.3-1.2h2.8zm.8 2.8c-.1.4-.1.9.2 1.3.5.5 1.3.8 2 .7 1.5 0 2.7-.6 3-1.9.3-1.2-.6-1.5-1.3-1.7l-1-.3c-.2-.1-.6-.2-.5-.6.1-.4.5-.7.9-.6.8 0 .6.6.6.8h1.6c.1-.6.3-1.9-2-1.9-1.8 0-2.7.9-2.9 1.8-.2.7.2 1.4.9 1.6h.2l1.3.4c.4.1.4.3.4.6-.1.7-.9.7-1 .7-1 0-.8-.7-.8-.9h-1.6zm7.4-4-1.2 5.9h1.7l1.2-5.9h-1.7zm-123-6.2c-2.1-.8-3-1.2-3-2.3 0-.8.8-1.5 2.3-1.5 1.2 0 2.3.3 3.4.8l.8-2.9c-1.3-.6-2.7-.8-4.1-.8-3.8 0-6.1 2.1-6.1 4.8 0 2.3 1.7 3.8 4.4 4.7 1.9.7 2.7 1.3 2.7 2.3 0 1-.9 1.7-2.5 1.7-1.4 0-2.8-.4-4-1l-.7 3c1.4.7 3 1 4.5 1 4.4 0 6.5-2.3 6.5-5-.1-2.3-1.4-3.8-4.2-4.8m8.3-6.8c-1 0-1.9.7-1.9 1.8 0 1 .7 1.9 1.8 1.9h.1c1 .1 1.9-.7 1.9-1.7.1-1-.7-1.9-1.7-1.9 0-.1-.1-.1-.2-.1m-1.8 4.7h3.6v11.6h-3.6zm11.8 4.5c-1.4-.5-1.9-.8-1.9-1.3 0-.6.5-1 1.4-1 .9 0 1.7.3 2.5.7l.6-2.5c-1-.5-2.2-.7-3.3-.7-2.9 0-4.7 1.6-4.7 3.8 0 1.4.9 2.7 3.3 3.5 1.4.5 1.7.7 1.7 1.3s-.5 1-1.5 1c-1.1-.1-2.2-.4-3.1-.9l-.6 2.6c1.2.6 2.5.8 3.8.8 3.3 0 5-1.6 5-3.8 0-1.6-.9-2.7-3.2-3.5m10-7.9-3.5.8v2.5h-1.5v2.7h1.5v4.8c-.1 1.2.2 2.5 1 3.5.7.7 1.7 1 2.7 1 .8 0 1.6-.1 2.4-.3v-2.7c-.4.1-.7.1-1.1.1-1.1 0-1.4-.6-1.4-2v-4.4h2.6v-2.7h-2.6v-3.3zm10.5 15.2c1.4 0 2.9-.2 4.2-.7l-.5-2.5c-1 .3-2.1.5-3.2.5-1.7 0-3.2-.7-3.3-2.2h7.5c.1-.5.1-.9.1-1.4 0-2.9-1.4-5.8-5.2-5.8-4 0-5.9 3.3-5.9 6.2.1 3.7 2.3 5.9 6.3 5.9m-.6-9.7c1.2 0 2.1 1 2.1 2.1v.2h-4.3c0-1.2 1-2.2 2.2-2.3m21.7-2.4c-.8 0-1.5.2-2.2.6-.6.4-1.1.8-1.5 1.4-.5-1.3-1.8-2-3.2-2-1.4 0-2.7.6-3.5 1.8h-.1l-.2-1.6h-3c0 1 .1 2.3.1 3.7v7.9h3.5v-6.8c0-.3 0-.6.1-.9.2-.8.9-1.3 1.7-1.3 1.1 0 1.7 1 1.7 2.5v6.5h3.5v-6.8c0-.3 0-.6.1-.9.2-.7.9-1.2 1.7-1.3 1.2 0 1.7 1 1.7 2.7v6.3h3.5v-6.9c.1-3.3-1.6-4.9-3.9-4.9m6.6 8.6c0 2 1.6 3.6 3.6 3.6h.2c1.3.1 2.5-.5 3.3-1.4h.1l.2 1.2h3.3c-.1-.9-.2-1.9-.2-2.8v-4c0-2.7-1.2-5-5.1-5-1.6 0-3.1.3-4.5 1l.7 2.3c1-.6 2.1-.9 3.2-.9 1.8 0 2.1.9 2.1 1.5v.2c-4.2-.2-6.9 1.3-6.9 4.3m6.9-2.2v1.3c0 .2 0 .4-.1.6-.3.8-1 1.3-1.9 1.3-.7.1-1.4-.4-1.4-1.2v-.2c.1-1.4 1.5-1.8 3.4-1.8m-39.3 26.5h3.6v-6.5h5.8v-3h-5.8v-3.7h6.2v-3h-9.8v16.2zm14-16.3c-1 0-1.9.7-1.9 1.8 0 1 .7 1.9 1.8 1.9h.1c1 .1 1.9-.7 1.9-1.7.1-1-.7-1.9-1.7-1.9-.1-.1-.1-.1-.2-.1m-1.8 4.6h3.6v11.6h-3.6zm11.5-.2c-4 0-5.9 3.3-5.9 6.2 0 3.6 2.3 5.9 6.2 5.9 1.4 0 2.9-.2 4.2-.7l-.5-2.5c-1 .3-2.1.5-3.2.5-1.7 0-3.2-.7-3.3-2.2h7.5c.1-.5.1-.9.1-1.4.1-2.9-1.3-5.8-5.1-5.8m-2.4 4.7c0-1.3 1-2.3 2.2-2.4 1.2 0 2.1 1 2.1 2.1v.2h-4.3zm16.9-4.7c-1.5-.1-3 .6-3.9 1.9l-.2-1.6h-3.1c0 1.1.1 2.4.1 3.9v12.5h3.6v-5.8c.7.9 1.9 1.4 3 1.3 2.6 0 5.3-2 5.3-6.2 0-3.8-2.3-6-4.8-6m-1.3 9.4c-1 0-1.9-.7-2.1-1.7 0-.3-.1-.5-.1-.8v-1.6c0-.2 0-.4.1-.6.2-1 1.1-1.8 2.2-1.8 1.6 0 2.4 1.4 2.4 3.3 0 1.8-1 3.2-2.5 3.2"/>
</svg>
